<?xml version="1.0" standalone="no"?>
<!DOCTYPE svg PUBLIC "-//W3C//DTD SVG 20010904//EN"
 "http://www.w3.org/TR/2001/REC-SVG-20010904/DTD/svg10.dtd">
<svg version="1.0" xmlns="http://www.w3.org/2000/svg"
 width="512.000000pt" height="512.000000pt" viewBox="0 0 512.000000 512.000000"
 preserveAspectRatio="xMidYMid meet">

<g transform="translate(0.000000,512.000000) scale(0.100000,-0.100000)"
fill="#000000" stroke="none">
<path d="M2520 4813 c-8 -3 -26 -15 -38 -27 -51 -46 -52 -52 -52 -411 0 -373
2 -388 64 -426 64 -39 147 -14 179 54 15 31 17 78 17 372 0 361 0 364 -53 413
-25 24 -88 37 -117 25z"/>
<path d="M3994 4161 c-21 -16 -136 -127 -256 -247 -230 -233 -240 -247 -223
-323 10 -47 67 -91 117 -91 41 0 46 4 271 228 270 267 287 288 287 350 0 37
-6 50 -34 78 -46 46 -105 48 -162 5z"/>
<path d="M994 4161 c-59 -26 -83 -116 -46 -172 15 -23 407 -385 500 -462 25
-20 44 -27 77 -27 56 0 80 32 80 107 l0 53 -251 251 c-243 243 -253 251 -295
255 -24 2 -54 0 -65 -5z"/>
<path d="M2370 3521 c-258 -55 -482 -209 -629 -432 -297 -451 -169 -1046 290
-1348 452 -298 1046 -169 1350 292 295 448 165 1047 -293 1347 -210 139 -479
191 -718 141z m294 -246 c145 -14 305 -95 417 -212 116 -121 182 -262 197
-423 23 -233 -53 -446 -215 -601 -158 -152 -357 -219 -583 -197 -334 32 -606
304 -638 638 -34 348 163 658 485 766 72 24 202 44 253 38 14 -2 52 -6 84 -9z"/>
<path d="M375 2671 c-54 -33 -70 -59 -70 -111 0 -38 6 -54 25 -75 51 -55 52
-55 415 -55 294 0 341 2 372 17 96 45 96 181 0 226 -31 15 -78 17 -374 17
-312 0 -340 -2 -368 -19z"/>
<path d="M4001 2673 c-94 -47 -93 -181 2 -226 31 -15 78 -17 372 -17 363 0
364 0 415 55 20 21 25 37 25 75 0 38 -5 54 -25 75 -51 55 -52 55 -417 55 -295
0 -342 -3 -372 -17z"/>
<path d="M1435 1595 c-35 -18 -433 -411 -476 -469 -22 -29 -29 -50 -29 -84 0
-38 5 -50 39 -83 49 -49 90 -52 147 -10 21 16 139 129 261 252 235 238 245
252 228 327 -14 66 -105 102 -170 67z"/>
<path d="M3575 1601 c-56 -23 -80 -101 -51 -163 23 -49 484 -505 519 -513 40
-10 76 2 114 40 45 45 46 104 4 161 -48 65 -454 462 -484 473 -33 13 -74 13
-102 2z"/>
<path d="M2494 1171 c-62 -38 -64 -53 -64 -426 0 -363 0 -364 55 -415 21 -20
37 -25 75 -25 38 0 54 5 75 25 55 51 55 52 55 415 0 294 -2 341 -17 372 -20
43 -66 73 -113 73 -19 0 -49 -9 -66 -19z"/>
</g>
</svg>
